<svg width="470" height="437" viewBox="0 0 470 437" fill="none" xmlns="http://www.w3.org/2000/svg">
<circle cx="232.5" cy="218.5" r="218.5" fill="#3CB2FF"/>
<circle cx="232" cy="219" r="192" fill="white"/>
<rect y="163" width="470" height="105" fill="white"/>
<path d="M107.067 227.944C107.323 227.24 107.835 226.664 108.603 226.216C109.371 225.704 110.171 225.448 111.003 225.448C111.259 225.448 111.643 225.512 112.155 225.64C114.011 226.152 114.939 227.24 114.939 228.904C114.939 230.376 114.299 231.88 113.019 233.416C113.147 233.928 113.211 234.376 113.211 234.76C113.211 235.592 113.019 236.424 112.635 237.256C112.315 238.088 111.835 238.856 111.195 239.56C111.003 240.584 110.715 241.48 110.331 242.248C110.011 242.952 109.499 243.784 108.795 244.744C108.027 245.768 107.259 246.504 106.491 246.952C105.787 247.336 104.795 247.72 103.515 248.104C103.195 249 102.683 249.832 101.979 250.6C101.275 251.304 100.411 251.656 99.3869 251.656C98.8749 251.656 98.3309 251.56 97.7549 251.368C97.3069 251.88 96.6669 252.296 95.8349 252.616C95.0669 252.872 94.2669 253 93.4349 253C92.3469 253 91.4829 252.776 90.8429 252.328C90.0749 252.648 89.0829 252.808 87.8669 252.808C86.2669 252.808 84.7309 252.552 83.2589 252.04C81.7869 251.528 80.6349 250.728 79.8029 249.64C78.2669 249.768 76.9869 249.416 75.9629 248.584C75.0669 248.072 74.4909 247.496 74.2349 246.856C71.8669 245.704 70.7149 243.592 70.7789 240.52C69.6269 239.752 68.7629 238.888 68.1869 237.928C67.6109 236.904 67.1629 235.624 66.8429 234.088C66.3309 233.576 66.0749 232.904 66.0749 232.072C66.0749 231.688 66.1069 231.368 66.1709 231.112C65.5949 230.536 65.3069 229.768 65.3069 228.808C65.3069 228.36 65.4029 227.912 65.5949 227.464C64.6989 226.504 64.2509 225.128 64.2509 223.336C64.2509 221.736 64.6029 220.488 65.3069 219.592C64.8589 218.952 64.6349 218.248 64.6349 217.48C64.6349 216.904 64.7949 216.296 65.1149 215.656C64.7949 215.272 64.6349 214.504 64.6349 213.352C64.6349 212.072 64.8269 210.792 65.2109 209.512C65.5949 208.168 66.0749 207.272 66.6509 206.824C66.4589 206.44 66.3629 205.896 66.3629 205.192C66.3629 204.168 66.5229 203.208 66.8429 202.312C67.2269 201.416 67.7389 200.936 68.3789 200.872C68.3789 199.528 68.9229 198.472 70.0109 197.704C69.9469 196.808 70.2669 195.816 70.9709 194.728C71.7389 193.64 72.6029 192.904 73.5629 192.52C73.7549 191.112 74.3309 189.928 75.2909 188.968C76.2509 188.008 77.3069 187.464 78.4589 187.336C78.7789 186.76 79.3549 186.28 80.1869 185.896C81.0829 185.448 81.9469 185.224 82.7789 185.224C83.4189 185.224 83.9629 185.352 84.4109 185.608C85.3709 184.712 86.4589 184.264 87.6749 184.264C88.6989 184.264 89.3709 184.52 89.6909 185.032C90.2029 184.904 90.6509 184.84 91.0349 184.84C92.1869 184.84 93.0509 185.256 93.6269 186.088C93.8829 185.896 94.2669 185.8 94.7789 185.8C95.6749 185.8 96.6669 186.056 97.7549 186.568C98.9069 187.016 99.5789 187.464 99.7709 187.912C101.115 188.168 102.331 188.84 103.419 189.928C104.507 190.952 104.955 192.008 104.763 193.096C105.659 193.544 106.299 194.184 106.683 195.016C107.067 195.784 107.195 196.52 107.067 197.224C107.643 197.672 108.027 198.248 108.219 198.952C108.411 199.592 108.539 199.976 108.603 200.104C109.883 201.192 110.523 202.568 110.523 204.232C110.523 204.552 110.459 204.968 110.331 205.48C110.395 205.736 110.427 206.056 110.427 206.44C110.427 207.528 110.011 208.456 109.179 209.224C108.411 209.928 107.515 210.28 106.491 210.28C105.467 210.28 104.571 209.896 103.803 209.128C102.011 207.208 101.019 205.288 100.827 203.368C100.059 203.112 99.4509 202.632 99.0029 201.928C98.5549 201.16 98.3629 200.328 98.4269 199.432C97.8509 199.048 97.4029 198.568 97.0829 197.992C96.8269 197.352 96.7309 196.712 96.7949 196.072C95.6429 196.072 94.7469 195.72 94.1069 195.016C93.9149 195.08 93.5629 195.112 93.0509 195.112C92.3469 195.112 91.5789 195.016 90.7469 194.824C89.9149 194.568 89.2749 194.28 88.8269 193.96C88.5709 194.024 88.1869 194.056 87.6749 194.056C86.9709 194.056 86.4909 193.992 86.2349 193.864C85.4029 194.376 84.6029 194.632 83.8349 194.632C83.5789 194.632 83.1309 194.568 82.4909 194.44C81.7869 195.016 81.1149 195.336 80.4749 195.4C80.3469 196.424 80.0589 197.352 79.6109 198.184C79.2269 199.016 78.7149 199.496 78.0749 199.624C78.2029 200.392 78.0749 201.16 77.6909 201.928C77.3069 202.632 76.7629 203.208 76.0589 203.656C75.9949 204.168 75.8349 204.68 75.5789 205.192C75.3229 205.64 75.0029 205.992 74.6189 206.248C74.6829 206.568 74.7469 206.952 74.8109 207.4C74.8749 207.784 74.9069 208.264 74.9069 208.84C74.9069 210.184 74.3309 211.24 73.1789 212.008C73.1789 212.84 73.0189 213.512 72.6989 214.024C73.0189 214.664 73.1789 215.304 73.1789 215.944C73.1789 216.584 73.0509 217.16 72.7949 217.672C73.1789 218.312 73.3709 218.92 73.3709 219.496C73.3709 220.072 73.2109 220.744 72.8909 221.512C72.5709 222.344 72.3789 223.112 72.3149 223.816C72.8909 224.136 73.3389 224.584 73.6589 225.16C73.9789 225.736 74.1389 226.344 74.1389 226.984C74.1389 227.688 73.9469 228.328 73.5629 228.904C74.0749 229.16 74.4589 229.608 74.7149 230.248C74.9709 230.888 75.0989 231.56 75.0989 232.264C75.0989 232.968 74.9709 233.544 74.7149 233.992C76.1229 234.76 77.0829 235.56 77.5949 236.392C78.1709 237.16 78.5869 238.408 78.8429 240.136C79.2909 240.328 79.8029 240.648 80.3789 241.096C81.0189 241.544 81.4349 241.928 81.6269 242.248C82.7149 242.184 83.8349 242.44 84.9869 243.016C86.2029 243.528 87.0349 244.232 87.4829 245.128C87.8669 244.808 88.4749 244.552 89.3069 244.36C90.2029 244.104 91.0669 243.976 91.8989 243.976C92.7949 243.976 93.4029 244.104 93.7229 244.36C94.6189 243.272 95.7069 242.728 96.9869 242.728C97.3709 242.728 97.6589 242.76 97.8509 242.824C98.8749 241.992 99.6749 241.416 100.251 241.096C100.827 240.712 101.499 240.424 102.267 240.232C102.331 239.272 102.715 238.344 103.419 237.448C103.483 236.936 103.675 236.328 103.995 235.624C104.315 234.856 104.635 234.28 104.955 233.896C104.891 233.704 104.859 233.384 104.859 232.936C104.859 232.104 105.083 231.208 105.531 230.248C105.979 229.224 106.491 228.456 107.067 227.944ZM159.405 185.992C160.301 185.416 161.325 185.128 162.477 185.128C163.373 185.128 164.109 185.32 164.685 185.704C165.965 185.448 167.021 185.768 167.853 186.664C168.749 187.496 169.197 188.488 169.197 189.64C169.197 190.6 168.845 191.4 168.141 192.04C167.501 192.68 166.541 193 165.261 193C164.429 193 163.789 192.936 163.341 192.808C162.637 193.384 161.645 193.672 160.365 193.672C158.957 193.672 157.677 193.384 156.525 192.808C156.141 193.064 155.437 193.288 154.413 193.48C153.389 193.672 152.397 193.768 151.437 193.768C150.797 193.768 150.221 193.704 149.709 193.576C150.221 194.408 150.477 195.464 150.477 196.744C150.477 198.088 150.189 199.016 149.613 199.528C150.573 200.68 151.053 202.184 151.053 204.04C151.053 205.256 150.797 206.376 150.285 207.4C150.925 209.128 151.245 210.824 151.245 212.488C151.245 213.576 151.117 214.536 150.861 215.368C151.181 215.752 151.437 216.36 151.629 217.192C151.885 218.024 152.013 218.856 152.013 219.688C152.013 220.648 151.821 221.48 151.437 222.184C152.397 223.08 152.877 224.488 152.877 226.408C152.877 227.688 152.717 228.712 152.397 229.48C152.973 230.376 153.261 231.528 153.261 232.936C153.261 233.768 153.101 234.504 152.781 235.144C153.101 235.72 153.261 236.52 153.261 237.544C153.261 238.504 153.133 239.24 152.877 239.752C153.517 240.392 153.837 241.416 153.837 242.824C153.837 243.4 153.741 243.944 153.549 244.456C154.381 245.416 154.733 246.376 154.605 247.336C154.925 248.104 155.085 248.744 155.085 249.256C155.085 250.344 154.669 251.24 153.837 251.944C153.005 252.648 152.045 253 150.957 253C150.125 253 149.389 252.776 148.749 252.328C148.173 251.816 147.789 251.048 147.597 250.024C147.149 249.576 146.797 248.936 146.541 248.104C146.285 247.272 146.157 246.472 146.157 245.704C146.157 245.256 146.221 244.776 146.349 244.264C145.645 243.56 145.293 242.312 145.293 240.52C145.293 239.688 145.357 239.112 145.485 238.792C144.909 237.896 144.621 237.128 144.621 236.488C144.621 235.592 144.973 234.792 145.677 234.088C144.781 233.448 144.333 232.456 144.333 231.112C144.333 230.024 144.589 229.192 145.101 228.616C144.205 228.104 143.757 226.76 143.757 224.584C143.757 223.368 143.885 222.408 144.141 221.704C143.821 221.32 143.533 220.744 143.277 219.976C143.085 219.144 142.989 218.312 142.989 217.48C142.989 216.584 143.117 215.912 143.373 215.464C142.797 214.312 142.509 212.936 142.509 211.336C142.509 210.376 142.637 209 142.893 207.208C142.445 205.992 142.221 204.68 142.221 203.272C142.221 201.992 142.413 200.936 142.797 200.104C142.029 199.336 141.645 197.928 141.645 195.88C141.645 194.92 141.741 194.056 141.933 193.288C141.229 193.672 140.525 193.864 139.821 193.864C139.117 193.864 138.445 193.704 137.805 193.384C137.357 193.64 136.749 193.768 135.981 193.768C134.701 193.768 133.805 193.48 133.293 192.904C132.973 193.224 132.493 193.48 131.853 193.672C131.213 193.864 130.541 193.96 129.837 193.96C128.237 193.96 127.149 193.576 126.573 192.808C126.189 192.872 125.677 192.904 125.037 192.904C123.437 192.904 122.253 192.616 121.485 192.04C120.717 191.464 120.333 190.696 120.333 189.736C120.333 188.648 120.845 187.624 121.869 186.664C122.893 185.64 124.109 185.128 125.517 185.128C126.157 185.128 126.893 185.288 127.725 185.608C128.237 185.032 129.229 184.744 130.701 184.744C131.917 184.744 132.845 184.968 133.485 185.416C133.997 184.968 134.893 184.744 136.173 184.744C137.005 184.744 137.805 184.84 138.573 185.032C139.405 185.224 140.013 185.48 140.397 185.8C140.845 185.16 142.029 184.84 143.949 184.84C145.677 184.84 146.765 185.128 147.213 185.704C147.725 185.192 148.621 184.936 149.901 184.936C151.117 184.936 151.885 185.224 152.205 185.8C152.973 185.224 154.093 184.936 155.565 184.936C157.229 184.936 158.509 185.288 159.405 185.992ZM228.015 242.632C228.015 242.632 228.559 242.856 229.647 243.304C230.799 243.752 231.247 245.256 230.991 247.816C231.247 248.328 231.375 248.904 231.375 249.544C231.375 250.568 230.959 251.4 230.127 252.04C229.295 252.68 228.335 253 227.247 253C226.287 253 225.455 252.712 224.751 252.136C224.111 251.496 223.791 250.6 223.791 249.448C223.087 249.32 222.351 248.776 221.583 247.816C220.879 246.792 220.527 245.768 220.527 244.744C220.527 244.488 220.591 244.104 220.719 243.592C220.079 243.272 219.503 242.632 218.991 241.672C218.543 240.648 218.223 239.592 218.031 238.504C217.839 237.416 217.775 236.648 217.839 236.2C217.007 235.816 216.335 234.888 215.823 233.416C215.375 231.88 215.215 230.568 215.343 229.48C214.895 229.672 214.351 229.768 213.711 229.768C212.431 229.768 211.247 229.384 210.159 228.616C209.327 229.448 208.079 229.864 206.415 229.864C204.879 229.864 203.791 229.48 203.151 228.712C202.319 229.416 201.423 229.768 200.463 229.768C199.695 229.768 199.087 229.608 198.639 229.288C198.191 229.608 197.519 229.768 196.623 229.768C195.855 229.768 195.087 229.64 194.319 229.384C193.551 229.128 192.943 228.776 192.495 228.328C192.431 228.328 192.271 228.392 192.015 228.52C192.399 229.736 192.591 230.824 192.591 231.784C192.591 233.256 191.855 234.536 190.383 235.624C190.639 236.136 190.767 236.744 190.767 237.448C190.767 238.856 190.287 240.2 189.327 241.48C188.367 242.76 187.439 243.464 186.543 243.592C186.799 244.168 186.927 244.84 186.927 245.608C186.927 247.336 186.351 248.936 185.199 250.408C184.047 251.816 182.639 252.52 180.975 252.52C180.527 252.52 180.175 252.488 179.919 252.424C179.087 252.424 178.447 252.168 177.999 251.656C177.551 251.144 177.327 250.472 177.327 249.64C177.327 249.064 177.487 248.392 177.807 247.624C177.743 247.368 177.711 246.984 177.711 246.472C177.711 245.192 178.351 244.072 179.631 243.112C179.567 242.92 179.535 242.632 179.535 242.248C179.535 241.288 179.759 240.328 180.207 239.368C180.719 238.344 181.359 237.672 182.127 237.352C182.063 237.224 182.031 236.936 182.031 236.488C182.031 235.4 182.287 234.152 182.799 232.744C183.311 231.272 183.887 230.44 184.527 230.248C184.399 227.432 185.327 224.584 187.311 221.704C187.311 220.232 187.535 218.856 187.983 217.576C188.431 216.232 189.231 215.272 190.383 214.696C190.447 213.48 190.735 212.264 191.247 211.048C191.759 209.832 192.335 208.808 192.975 207.976C192.783 207.272 192.687 206.632 192.687 206.056C192.687 205.16 192.847 204.456 193.167 203.944C193.551 203.368 193.967 203.016 194.415 202.888C194.351 202.632 194.319 202.248 194.319 201.736C194.319 200.328 194.831 199.208 195.855 198.376L195.759 197.8C195.759 196.84 196.143 195.976 196.911 195.208C196.847 194.952 196.815 194.6 196.815 194.152C196.815 193 197.103 191.848 197.679 190.696C198.255 189.544 198.895 188.776 199.599 188.392C200.751 186.792 201.967 185.992 203.247 185.992C203.823 185.992 204.559 186.184 205.455 186.568C207.311 186.632 208.655 188.072 209.487 190.888C210.063 191.592 210.479 192.424 210.735 193.384C210.991 194.28 211.087 195.112 211.023 195.88C211.599 196.264 212.015 196.776 212.271 197.416C212.591 198.056 212.719 198.728 212.655 199.432C213.295 200.008 213.839 200.904 214.287 202.12C214.799 203.336 215.055 204.488 215.055 205.576C215.055 206.088 215.023 206.44 214.959 206.632C215.407 207.08 215.791 207.72 216.111 208.552C216.495 209.384 216.687 210.152 216.687 210.856C216.687 211.24 216.655 211.528 216.591 211.72C217.423 212.296 218.095 213.192 218.607 214.408C219.183 215.624 219.567 216.84 219.759 218.056C220.015 219.208 220.079 220.008 219.951 220.456C220.079 220.648 220.431 221.128 221.007 221.896C221.583 222.6 222.031 223.336 222.351 224.104C222.671 224.808 222.831 225.48 222.831 226.12C222.831 226.696 222.767 227.112 222.639 227.368C222.895 227.688 223.183 228.072 223.503 228.52C223.823 228.904 224.079 229.256 224.271 229.576C224.463 229.896 224.559 230.28 224.559 230.728C224.559 231.176 224.527 231.496 224.463 231.688C224.975 232.2 225.423 232.872 225.807 233.704C226.191 234.536 226.383 235.336 226.383 236.104C226.383 236.744 226.255 237.224 225.999 237.544C226.703 238.056 227.247 238.792 227.631 239.752C228.015 240.712 228.143 241.672 228.015 242.632ZM210.351 221.8C210.479 221.416 210.767 221.192 211.215 221.128C211.663 221 212.047 221.032 212.367 221.224C212.239 220.84 212.175 220.552 212.175 220.36C212.175 219.848 212.303 219.464 212.559 219.208C211.983 218.76 211.503 218.184 211.119 217.48C210.799 216.776 210.671 216.072 210.735 215.368C210.287 215.24 209.871 214.92 209.487 214.408C209.167 213.832 209.007 213.224 209.007 212.584C209.007 212.392 209.071 212.04 209.199 211.528C207.855 210.696 207.183 209.448 207.183 207.784C207.183 207.144 207.279 206.408 207.471 205.576C207.407 205.512 207.247 205.384 206.991 205.192C206.735 204.936 206.639 204.552 206.703 204.04C205.423 203.656 204.815 202.632 204.879 200.968C204.367 200.712 203.951 200.232 203.631 199.528C203.759 201 203.183 202.152 201.903 202.984C201.967 203.688 201.839 204.488 201.519 205.384C201.199 206.28 200.815 206.952 200.367 207.4C200.431 207.656 200.463 208.072 200.463 208.648C200.463 210.12 199.855 212.072 198.639 214.504C198.319 215.208 198.063 215.848 197.871 216.424C197.615 217.064 197.327 217.704 197.007 218.344C196.751 218.984 196.399 219.464 195.951 219.784C195.951 220.424 195.823 221 195.567 221.512L196.335 221.416C196.975 221.416 197.455 221.576 197.775 221.896C197.967 221.576 198.351 221.416 198.927 221.416C199.311 221.416 199.599 221.512 199.791 221.704C200.559 221.128 201.519 220.84 202.671 220.84C203.503 220.84 204.271 220.968 204.975 221.224C205.679 221.48 206.255 221.832 206.703 222.28C207.343 221.576 208.015 221.224 208.719 221.224C209.167 221.224 209.711 221.416 210.351 221.8ZM274.999 185.992C275.895 185.416 276.919 185.128 278.071 185.128C278.967 185.128 279.703 185.32 280.279 185.704C281.559 185.448 282.615 185.768 283.447 186.664C284.343 187.496 284.791 188.488 284.791 189.64C284.791 190.6 284.439 191.4 283.735 192.04C283.095 192.68 282.135 193 280.855 193C280.023 193 279.383 192.936 278.935 192.808C278.231 193.384 277.239 193.672 275.959 193.672C274.551 193.672 273.271 193.384 272.119 192.808C271.735 193.064 271.031 193.288 270.007 193.48C268.983 193.672 267.991 193.768 267.031 193.768C266.391 193.768 265.815 193.704 265.303 193.576C265.815 194.408 266.071 195.464 266.071 196.744C266.071 198.088 265.783 199.016 265.207 199.528C266.167 200.68 266.647 202.184 266.647 204.04C266.647 205.256 266.391 206.376 265.879 207.4C266.519 209.128 266.839 210.824 266.839 212.488C266.839 213.576 266.711 214.536 266.455 215.368C266.775 215.752 267.031 216.36 267.223 217.192C267.479 218.024 267.607 218.856 267.607 219.688C267.607 220.648 267.415 221.48 267.031 222.184C267.991 223.08 268.471 224.488 268.471 226.408C268.471 227.688 268.311 228.712 267.991 229.48C268.567 230.376 268.855 231.528 268.855 232.936C268.855 233.768 268.695 234.504 268.375 235.144C268.695 235.72 268.855 236.52 268.855 237.544C268.855 238.504 268.727 239.24 268.471 239.752C269.111 240.392 269.431 241.416 269.431 242.824C269.431 243.4 269.335 243.944 269.143 244.456C269.975 245.416 270.327 246.376 270.199 247.336C270.519 248.104 270.679 248.744 270.679 249.256C270.679 250.344 270.263 251.24 269.431 251.944C268.599 252.648 267.639 253 266.551 253C265.719 253 264.983 252.776 264.343 252.328C263.767 251.816 263.383 251.048 263.191 250.024C262.743 249.576 262.391 248.936 262.135 248.104C261.879 247.272 261.751 246.472 261.751 245.704C261.751 245.256 261.815 244.776 261.943 244.264C261.239 243.56 260.887 242.312 260.887 240.52C260.887 239.688 260.951 239.112 261.079 238.792C260.503 237.896 260.215 237.128 260.215 236.488C260.215 235.592 260.567 234.792 261.271 234.088C260.375 233.448 259.927 232.456 259.927 231.112C259.927 230.024 260.183 229.192 260.695 228.616C259.799 228.104 259.351 226.76 259.351 224.584C259.351 223.368 259.479 222.408 259.735 221.704C259.415 221.32 259.127 220.744 258.871 219.976C258.679 219.144 258.583 218.312 258.583 217.48C258.583 216.584 258.711 215.912 258.967 215.464C258.391 214.312 258.103 212.936 258.103 211.336C258.103 210.376 258.231 209 258.487 207.208C258.039 205.992 257.815 204.68 257.815 203.272C257.815 201.992 258.007 200.936 258.391 200.104C257.623 199.336 257.239 197.928 257.239 195.88C257.239 194.92 257.335 194.056 257.527 193.288C256.823 193.672 256.119 193.864 255.415 193.864C254.711 193.864 254.039 193.704 253.399 193.384C252.951 193.64 252.343 193.768 251.575 193.768C250.295 193.768 249.399 193.48 248.887 192.904C248.567 193.224 248.087 193.48 247.447 193.672C246.807 193.864 246.135 193.96 245.431 193.96C243.831 193.96 242.743 193.576 242.167 192.808C241.783 192.872 241.271 192.904 240.631 192.904C239.031 192.904 237.847 192.616 237.079 192.04C236.311 191.464 235.927 190.696 235.927 189.736C235.927 188.648 236.439 187.624 237.463 186.664C238.487 185.64 239.703 185.128 241.111 185.128C241.751 185.128 242.487 185.288 243.319 185.608C243.831 185.032 244.823 184.744 246.295 184.744C247.511 184.744 248.439 184.968 249.079 185.416C249.591 184.968 250.487 184.744 251.767 184.744C252.599 184.744 253.399 184.84 254.167 185.032C254.999 185.224 255.607 185.48 255.991 185.8C256.439 185.16 257.623 184.84 259.543 184.84C261.271 184.84 262.359 185.128 262.807 185.704C263.319 185.192 264.215 184.936 265.495 184.936C266.711 184.936 267.479 185.224 267.799 185.8C268.567 185.224 269.687 184.936 271.159 184.936C272.823 184.936 274.103 185.288 274.999 185.992ZM292.345 193.576C291.577 192.872 291.193 192.008 291.193 190.984C291.193 189.832 291.577 188.776 292.345 187.816C293.177 186.792 294.073 186.28 295.033 186.28C295.929 186.28 296.793 186.792 297.625 187.816C299.097 188.52 299.833 189.576 299.833 190.984C300.729 191.56 301.497 192.424 302.137 193.576C302.777 194.664 303.097 195.752 303.097 196.84C304.057 197.544 304.601 198.472 304.729 199.624C305.561 200.072 306.105 200.648 306.361 201.352C306.617 202.056 306.713 202.952 306.649 204.04C306.969 204.296 307.225 204.744 307.417 205.384C307.673 205.96 307.833 206.536 307.897 207.112C308.665 207.432 309.305 207.912 309.817 208.552C310.329 209.192 310.649 209.928 310.777 210.76C311.225 211.08 311.609 211.624 311.929 212.392C312.249 213.096 312.409 213.704 312.409 214.216C313.753 215.048 314.361 216.168 314.233 217.576C314.745 217.96 315.193 218.6 315.577 219.496C316.025 220.328 316.249 221.128 316.249 221.896C316.249 222.152 316.185 222.472 316.057 222.856C316.633 223.432 317.177 224.232 317.689 225.256C318.265 226.28 318.585 227.208 318.649 228.04C318.713 227.592 318.809 227.304 318.937 227.176C319.065 227.048 319.257 226.952 319.513 226.888C319.321 225.544 319.769 224.424 320.857 223.528C320.793 222.888 320.921 222.248 321.241 221.608C321.561 220.968 322.041 220.488 322.681 220.168C322.425 219.72 322.297 219.176 322.297 218.536C322.297 217.32 322.777 216.392 323.737 215.752C323.673 214.6 323.929 213.544 324.505 212.584C325.081 211.624 325.753 210.92 326.521 210.472C326.393 209.96 326.329 209.608 326.329 209.416C326.329 208.136 326.873 207.144 327.961 206.44C328.025 205.096 328.473 204.232 329.305 203.848C329.241 202.184 329.561 200.424 330.265 198.568C331.033 196.648 331.897 195.528 332.857 195.208C333.369 193.736 333.785 192.84 334.105 192.52C333.977 191.432 334.169 190.12 334.681 188.584C335.193 186.984 336.121 185.8 337.465 185.032C338.169 184.648 338.777 184.456 339.289 184.456C340.313 184.456 341.113 184.936 341.689 185.896C342.329 186.792 342.649 187.848 342.649 189.064C342.649 190.472 342.201 191.624 341.305 192.52C341.369 192.776 341.401 193.096 341.401 193.48C341.401 194.824 340.857 195.88 339.769 196.648C339.833 196.84 339.865 197.16 339.865 197.608C339.865 198.504 339.641 199.304 339.193 200.008C338.745 200.712 338.073 201.16 337.177 201.352C337.305 201.992 337.369 202.536 337.369 202.984C337.369 203.944 337.177 204.904 336.793 205.864C336.409 206.76 335.865 207.528 335.161 208.168V208.648C335.161 209.672 334.777 210.536 334.009 211.24C334.265 213.352 333.305 215.08 331.129 216.424C331.321 216.872 331.417 217.32 331.417 217.768C331.417 218.792 331.097 219.624 330.457 220.264C330.649 221.096 330.457 222.056 329.881 223.144C329.369 224.232 328.729 225 327.961 225.448C327.961 226.472 327.577 227.336 326.809 228.04C326.937 228.424 327.001 228.744 327.001 229C327.001 229.896 326.681 230.824 326.041 231.784C325.401 232.68 324.697 233.224 323.929 233.416C324.121 234.184 323.865 235.304 323.161 236.776C322.521 238.184 321.625 239.176 320.473 239.752C320.025 240.584 319.417 241.256 318.649 241.768C318.329 242.664 317.753 243.496 316.921 244.264C316.153 245.032 315.225 245.64 314.137 246.088C313.561 247.176 312.345 248.104 310.489 248.872C310.297 249.64 309.913 250.28 309.337 250.792C308.761 251.24 308.089 251.464 307.321 251.464C306.873 251.464 306.361 251.368 305.785 251.176C305.401 251.432 304.889 251.656 304.249 251.848C303.609 252.04 302.969 252.136 302.329 252.136C301.881 252.136 301.401 252.072 300.889 251.944C300.313 252.456 299.609 252.712 298.777 252.712C297.753 252.712 296.857 252.296 296.089 251.464C295.321 250.568 294.937 249.608 294.937 248.584C294.937 247.176 295.609 246.216 296.953 245.704C297.209 245.256 297.625 244.904 298.201 244.648C298.777 244.392 299.353 244.264 299.929 244.264C300.569 244.264 301.209 244.424 301.849 244.744C302.041 244.36 302.553 244.008 303.385 243.688C304.281 243.368 304.921 243.304 305.305 243.496C306.521 242.28 307.577 241.544 308.473 241.288C309.305 240.008 310.489 239.112 312.025 238.6C312.153 237.896 312.537 237.16 313.177 236.392C313.881 235.624 314.521 235.144 315.097 234.952C314.265 234.44 313.497 233.704 312.793 232.744C312.153 231.72 311.801 230.76 311.737 229.864C310.969 229.224 310.265 228.36 309.625 227.272C308.985 226.184 308.665 225.16 308.665 224.2C308.665 223.88 308.697 223.624 308.761 223.432C307.993 223.24 307.353 222.856 306.841 222.28C306.329 221.64 306.105 220.936 306.169 220.168C305.657 219.912 305.241 219.528 304.921 219.016C304.665 218.44 304.537 217.864 304.537 217.288C304.537 217.096 304.601 216.744 304.729 216.232C304.345 215.848 303.929 215.208 303.481 214.312C303.033 213.352 302.809 212.648 302.809 212.2C302.041 211.944 301.433 211.496 300.985 210.856C300.537 210.216 300.345 209.448 300.409 208.552C299.833 208.04 299.417 207.08 299.161 205.672C298.329 205.416 297.721 204.936 297.337 204.232C296.953 203.464 296.825 202.632 296.953 201.736C295.929 200.776 295.481 199.368 295.609 197.512C294.713 197.384 293.913 197 293.209 196.36C292.569 195.656 292.281 194.728 292.345 193.576ZM392.723 227.944C392.979 227.24 393.491 226.664 394.259 226.216C395.027 225.704 395.827 225.448 396.659 225.448C396.915 225.448 397.299 225.512 397.811 225.64C399.667 226.152 400.595 227.24 400.595 228.904C400.595 230.376 399.955 231.88 398.675 233.416C398.803 233.928 398.867 234.376 398.867 234.76C398.867 235.592 398.675 236.424 398.291 237.256C397.971 238.088 397.491 238.856 396.851 239.56C396.659 240.584 396.371 241.48 395.987 242.248C395.667 242.952 395.155 243.784 394.451 244.744C393.683 245.768 392.915 246.504 392.147 246.952C391.443 247.336 390.451 247.72 389.171 248.104C388.851 249 388.339 249.832 387.635 250.6C386.931 251.304 386.067 251.656 385.043 251.656C384.531 251.656 383.987 251.56 383.411 251.368C382.963 251.88 382.323 252.296 381.491 252.616C380.723 252.872 379.923 253 379.091 253C378.003 253 377.139 252.776 376.499 252.328C375.731 252.648 374.739 252.808 373.523 252.808C371.923 252.808 370.387 252.552 368.915 252.04C367.443 251.528 366.291 250.728 365.459 249.64C363.923 249.768 362.643 249.416 361.619 248.584C360.723 248.072 360.147 247.496 359.891 246.856C357.523 245.704 356.371 243.592 356.435 240.52C355.283 239.752 354.419 238.888 353.843 237.928C353.267 236.904 352.819 235.624 352.499 234.088C351.987 233.576 351.731 232.904 351.731 232.072C351.731 231.688 351.763 231.368 351.827 231.112C351.251 230.536 350.963 229.768 350.963 228.808C350.963 228.36 351.059 227.912 351.251 227.464C350.355 226.504 349.907 225.128 349.907 223.336C349.907 221.736 350.259 220.488 350.963 219.592C350.515 218.952 350.291 218.248 350.291 217.48C350.291 216.904 350.451 216.296 350.771 215.656C350.451 215.272 350.291 214.504 350.291 213.352C350.291 212.072 350.483 210.792 350.867 209.512C351.251 208.168 351.731 207.272 352.307 206.824C352.115 206.44 352.019 205.896 352.019 205.192C352.019 204.168 352.179 203.208 352.499 202.312C352.883 201.416 353.395 200.936 354.035 200.872C354.035 199.528 354.579 198.472 355.667 197.704C355.603 196.808 355.923 195.816 356.627 194.728C357.395 193.64 358.259 192.904 359.219 192.52C359.411 191.112 359.987 189.928 360.947 188.968C361.907 188.008 362.963 187.464 364.115 187.336C364.435 186.76 365.011 186.28 365.843 185.896C366.739 185.448 367.603 185.224 368.435 185.224C369.075 185.224 369.619 185.352 370.067 185.608C371.027 184.712 372.115 184.264 373.331 184.264C374.355 184.264 375.027 184.52 375.347 185.032C375.859 184.904 376.307 184.84 376.691 184.84C377.843 184.84 378.707 185.256 379.283 186.088C379.539 185.896 379.923 185.8 380.435 185.8C381.331 185.8 382.323 186.056 383.411 186.568C384.563 187.016 385.235 187.464 385.427 187.912C386.771 188.168 387.987 188.84 389.075 189.928C390.163 190.952 390.611 192.008 390.419 193.096C391.315 193.544 391.955 194.184 392.339 195.016C392.723 195.784 392.851 196.52 392.723 197.224C393.299 197.672 393.683 198.248 393.875 198.952C394.067 199.592 394.195 199.976 394.259 200.104C395.539 201.192 396.179 202.568 396.179 204.232C396.179 204.552 396.115 204.968 395.987 205.48C396.051 205.736 396.083 206.056 396.083 206.44C396.083 207.528 395.667 208.456 394.835 209.224C394.067 209.928 393.171 210.28 392.147 210.28C391.123 210.28 390.227 209.896 389.459 209.128C387.667 207.208 386.675 205.288 386.483 203.368C385.715 203.112 385.107 202.632 384.659 201.928C384.211 201.16 384.019 200.328 384.083 199.432C383.507 199.048 383.059 198.568 382.739 197.992C382.483 197.352 382.387 196.712 382.451 196.072C381.299 196.072 380.403 195.72 379.763 195.016C379.571 195.08 379.219 195.112 378.707 195.112C378.003 195.112 377.235 195.016 376.403 194.824C375.571 194.568 374.931 194.28 374.483 193.96C374.227 194.024 373.843 194.056 373.331 194.056C372.627 194.056 372.147 193.992 371.891 193.864C371.059 194.376 370.259 194.632 369.491 194.632C369.235 194.632 368.787 194.568 368.147 194.44C367.443 195.016 366.771 195.336 366.131 195.4C366.003 196.424 365.715 197.352 365.267 198.184C364.883 199.016 364.371 199.496 363.731 199.624C363.859 200.392 363.731 201.16 363.347 201.928C362.963 202.632 362.419 203.208 361.715 203.656C361.651 204.168 361.491 204.68 361.235 205.192C360.979 205.64 360.659 205.992 360.275 206.248C360.339 206.568 360.403 206.952 360.467 207.4C360.531 207.784 360.563 208.264 360.563 208.84C360.563 210.184 359.987 211.24 358.835 212.008C358.835 212.84 358.675 213.512 358.355 214.024C358.675 214.664 358.835 215.304 358.835 215.944C358.835 216.584 358.707 217.16 358.451 217.672C358.835 218.312 359.027 218.92 359.027 219.496C359.027 220.072 358.867 220.744 358.547 221.512C358.227 222.344 358.035 223.112 357.971 223.816C358.547 224.136 358.995 224.584 359.315 225.16C359.635 225.736 359.795 226.344 359.795 226.984C359.795 227.688 359.603 228.328 359.219 228.904C359.731 229.16 360.115 229.608 360.371 230.248C360.627 230.888 360.755 231.56 360.755 232.264C360.755 232.968 360.627 233.544 360.371 233.992C361.779 234.76 362.739 235.56 363.251 236.392C363.827 237.16 364.243 238.408 364.499 240.136C364.947 240.328 365.459 240.648 366.035 241.096C366.675 241.544 367.091 241.928 367.283 242.248C368.371 242.184 369.491 242.44 370.643 243.016C371.859 243.528 372.691 244.232 373.139 245.128C373.523 244.808 374.131 244.552 374.963 244.36C375.859 244.104 376.723 243.976 377.555 243.976C378.451 243.976 379.059 244.104 379.379 244.36C380.275 243.272 381.363 242.728 382.643 242.728C383.027 242.728 383.315 242.76 383.507 242.824C384.531 241.992 385.331 241.416 385.907 241.096C386.483 240.712 387.155 240.424 387.923 240.232C387.987 239.272 388.371 238.344 389.075 237.448C389.139 236.936 389.331 236.328 389.651 235.624C389.971 234.856 390.291 234.28 390.611 233.896C390.547 233.704 390.515 233.384 390.515 232.936C390.515 232.104 390.739 231.208 391.187 230.248C391.635 229.224 392.147 228.456 392.723 227.944Z" fill="#3CB2FF"/>
</svg>
