<svg xmlns="http://www.w3.org/2000/svg" width="256" height="256"><path fill-opacity=".016" d="M0 128.004v128.004l128.25-.254 128.25-.254.254-127.75L257.008 0H0v128.004m.485.496c0 70.4.119 99.053.265 63.672.146-35.38.146-92.98 0-128C.604 29.153.485 58.1.485 128.5" fill="#1976D2" fill-rule="evenodd"/><path fill-opacity=".059" d="M105.33 10.481c-42.118 7.642-77.962 38.747-91.911 79.756C12.089 94.149 11 97.496 11 97.675c0 .179 3.551.325 7.892.325 7.776 0 7.901-.04 8.575-2.75 1.302-5.232 8.403-19.235 13.473-26.569 6.068-8.778 18.105-20.677 26.941-26.633 31.66-21.339 73.915-23.67 107.119-5.909 21.52 11.511 39.589 31.589 48.086 53.434L226.364 98h7.818c4.3 0 7.818-.423 7.818-.94 0-2.261-5.587-16.27-9.595-24.06-16.724-32.501-48.909-56.195-84.851-62.463-10.642-1.855-32.147-1.884-42.224-.056m-61.48 99.616c-7.46 2.823-11.358 18.446-7.039 28.209 3.481 7.869 11.104 10.726 18.832 7.059 3.604-1.71 5.657-4.731 6.788-9.988.503-2.335.282-3.273-.872-3.716-1.794-.688-3.009.509-5.362 5.279-2.088 4.234-6.028 5.787-10.248 4.039-1.622-.672-2.949-1.805-2.949-2.517s-.446-1.445-.99-1.629c-.545-.183-1.252-3.033-1.573-6.333-.489-5.043-.212-6.718 1.74-10.5 2.123-4.113 2.623-4.485 5.817-4.326 2.398.119 3.965.886 5 2.446 3.907 5.892 4.747 6.507 6.513 4.772 1.515-1.487 1.473-1.956-.56-6.281-1.208-2.571-2.937-5.07-3.84-5.554-2.842-1.521-8.501-2.003-11.257-.96m22.458.433c-2.662 1.966-.468 3.652 5.498 4.225l4.924.474.675 9.135C78.798 143.221 79.644 147 82.476 147c2.239 0 2.363-.956 1.422-11-2.2-23.496-2.298-20.998.83-21.014 4.732-.023 7.272-1.107 7.272-3.103 0-2.168.729-2.035-13.192-2.405-7.726-.205-11.193.087-12.5 1.052m62.998.001c-2.678 1.979-.452 3.652 5.635 4.237l5.059.486.077 5.123c.042 2.818.207 5.798.367 6.623.16.825.604 4.844.985 8.931.382 4.087 1.147 8.277 1.7 9.31 1.435 2.682 4.402 1.791 4.241-1.272-.162-3.084-1.269-16.737-1.923-23.719-.486-5.187-.459-5.25 2.28-5.264 4.733-.023 7.273-1.107 7.273-3.103 0-1.035-.562-1.93-1.25-1.988-9.996-.836-22.905-.5-24.444.636m54.086-.314c-1.536 2.171-7.606 15.59-8.813 19.483-.57 1.84-1.512.609-5.74-7.5-6.273-12.029-7.266-13.201-9.391-11.077-1.402 1.402-1.006 2.603 4.105 12.464 3.112 6.002 6.075 11.428 6.587 12.057 1.183 1.457-1.433 4.162-5.782 5.98-3.799 1.587-4.519 2.498-3.402 4.306 1.479 2.392 7.42.385 11.721-3.959 2.901-2.93 5.342-7.321 9.197-16.546 2.886-6.907 5.107-13.278 4.937-14.158-.407-2.098-2.272-2.671-3.419-1.05m14.671.451c-1.18.827-3.334 3.378-4.786 5.668-3.567 5.628-3.768 16.981-.412 23.275 4.033 7.564 14.647 9.704 20.627 4.159 3.673-3.405 5.846-9.775 3.986-11.684-1.823-1.872-3.973-.146-5.47 4.391-.712 2.157-2.11 3.737-4.001 4.52-8.484 3.514-14.438-6.634-11.02-18.782 1.709-6.073 3.346-7.563 7.465-6.79 2.851.535 3.96 1.462 5.604 4.684 1.373 2.693 2.609 3.911 3.747 3.694 3.901-.743 1.62-9.169-3.367-12.437-3.386-2.218-9.694-2.574-12.373-.698m-89.864 1.021c-.515.996-1.496 3.611-2.18 5.811-.685 2.2-3.247 9.116-5.693 15.37-2.446 6.253-4.197 12.024-3.89 12.824 1.456 3.793 6.483-1.496 8.004-8.422.656-2.987.836-3.075 6.139-3.022l5.464.054 3.03 6.348c2.19 4.59 3.569 6.348 4.978 6.348 1.499 0 1.949-.693 1.949-3 0-1.65-.45-3-1-3s-1.017-.787-1.038-1.75c-.021-.963-2.392-7.825-5.269-15.25-4.293-11.082-5.618-13.556-7.394-13.811-1.308-.188-2.534.405-3.1 1.5m2.252 8.918c-.329 1.041-1.232 3.356-2.008 5.143l-1.411 3.25h3.984c4.341 0 4.499-.17 2.914-3.131-.588-1.099-1.249-2.93-1.469-4.069-.566-2.943-1.318-3.389-2.01-1.193M11.644 160.25c12.948 44.236 49.665 77.463 94.237 85.28 10.729 1.882 30.478 1.885 41.248.007 36.524-6.37 69.212-30.565 85.837-63.537 3.649-7.237 8.041-18.554 9.411-24.25l.661-2.75h-15.874l-2.595 7.75c-12.738 38.046-49.562 66.439-89.569 69.062-27.222 1.784-51.095-5.104-71.709-20.692-16.908-12.785-30.537-32.234-36.35-51.87L25.683 155H10.108l1.536 5.25" fill="#1976D2" fill-rule="evenodd"/><path fill-opacity=".255" d="M107.437 10.49c-36.775 6.497-67.889 28.834-85.858 61.641C17.88 78.884 12 93.861 12 96.529 12 97.684 13.509 98 19.031 98c5.799 0 7.138-.307 7.64-1.75 12.101-34.81 38.583-59.63 74.154-69.5 6.436-1.786 10.499-2.138 25.175-2.182 15.271-.046 18.583.242 26 2.258 19.552 5.316 35.39 14.63 49.034 28.837 11.495 11.969 20.437 26.153 24.01 38.087l1.273 4.25h15.575l-1.526-5.25c-2.173-7.476-10.374-24.397-15.451-31.88-2.377-3.504-8.393-10.582-13.368-15.73-15.575-16.114-35.031-27.308-56.915-32.746-12.849-3.192-34.871-4.081-47.195-1.904m-62.139 99.292c-3.138.491-8.015 6.454-9.366 11.455-1.501 5.555-.658 13.308 2.002 18.413 3.871 7.426 12.857 9.328 19.355 4.096 3.164-2.548 6.095-9.691 4.606-11.224-1.476-1.518-4.201.72-5.1 4.188-.954 3.683-5.23 5.793-9.737 4.803-7.118-1.564-9.5-14.877-4.252-23.762 1.31-2.217 2.347-2.751 5.346-2.751 3.299 0 3.975.453 5.968 4 3.887 6.916 8.1 4.194 4.446-2.872-.789-1.526-2.126-3.348-2.972-4.05-1.873-1.554-7.298-2.764-10.296-2.296m137.909.411c-.664.664-1.207 1.65-1.207 2.191 0 .934-3.071 8.11-5.072 11.852-.51.955-.928 2.332-.928 3.059 0 .728-.583 2.12-1.296 3.095-1.154 1.578-1.771.81-5.663-7.059-4.566-9.232-7.74-13.635-9.186-12.741-1.053.651-1.137 5.118-.105 5.577.412.183 3.131 5.002 6.042 10.708 5.042 9.883 5.211 10.464 3.581 12.265-.941 1.04-3.097 2.25-4.792 2.689-2.106.545-3.081 1.411-3.081 2.735 0 1.557.588 1.872 3 1.611 7.238-.784 12.013-7.569 20.472-29.089 1.781-4.531 1.909-5.633.785-6.757-1.049-1.049-1.607-1.079-2.55-.136m16.708.218c-4.905 1.608-8.919 9.7-8.905 17.953.024 13.9 9.318 21.896 19.716 16.962 5.288-2.51 9.751-13.326 5.498-13.326-1.107 0-2.519 1.585-3.75 4.208-3.234 6.895-10.266 7.701-14.561 1.669-3.165-4.444-3.163-13.92.004-19.127 1.906-3.134 2.831-3.75 5.634-3.75 2.859 0 3.819.677 6.517 4.598 2.862 4.161 3.312 4.451 4.719 3.043 1.407-1.407 1.383-1.938-.258-5.576-2.844-6.307-8.214-8.751-14.614-6.654m-133.558 1.101c-.882 2.3.093 2.813 5.2 2.736 5.407-.082 6.013.892 6.345 10.193.326 9.157 1.974 20.835 3.099 21.96 2.498 2.498 2.952-1.219 1.848-15.109-.618-7.774-.851-14.845-.518-15.713.431-1.122 1.938-1.579 5.211-1.579 3.847 0 4.549-.288 4.269-1.75-.294-1.534-1.845-1.785-12.593-2.031-10.4-.238-12.349-.042-12.861 1.293m42.471.238c-.816.963-2.053 3.775-2.75 6.25-.697 2.475-1.854 5.85-2.57 7.5-3.304 7.606-6.694 18.573-6.167 19.947 1.289 3.359 4.752-1.107 7.132-9.197.589-2.001 1.308-2.25 6.512-2.25h5.85l1.752 4.75c1.813 4.915 4.077 8.25 5.599 8.25 1.783 0 2.023-3.204.472-6.305-.879-1.757-3.445-8.37-5.702-14.695-4.121-11.55-6.298-16-7.824-16-.452 0-1.489.787-2.304 1.75m20.529-.238c-.88 2.294.093 2.813 5.132 2.737 2.477-.038 4.77.361 5.094.886.324.524.805 3.971 1.069 7.659.882 12.36 2.332 22.59 3.345 23.603 2.502 2.502 2.957-1.208 1.852-15.105-.618-7.774-.851-14.845-.518-15.713.431-1.122 1.938-1.579 5.211-1.579 3.847 0 4.549-.288 4.269-1.75-.294-1.534-1.845-1.785-12.593-2.031-10.4-.238-12.349-.042-12.861 1.293m-20.356 11.486c-.612 2.27-1.328 4.69-1.591 5.377-.341.888.761 1.224 3.805 1.161 2.357-.049 4.184-.527 4.061-1.062-.804-3.492-3.236-8.961-4.115-9.254-.577-.192-1.549 1.508-2.16 3.778M11 156.059c0 2.173 5.959 18.927 8.6 24.178 21.467 42.69 64.834 68.429 111.9 66.414 31.112-1.332 58.635-13.638 80.047-35.791 13.454-13.92 22.167-28.028 27.952-45.262 3.645-10.86 3.762-10.599-4.749-10.589l-7.25.008-1.94 6.242c-5.795 18.638-19.319 37.5-35.973 50.171-9.761 7.426-18.248 11.855-30.587 15.962-25.288 8.416-52.703 6.865-76.619-4.337C56.844 211.094 36.41 188.356 27.515 162l-2.194-6.5-7.16-.294c-4.888-.2-7.161.07-7.161.853" fill="#1976D2" fill-rule="evenodd"/><path fill-opacity=".113" d="M113.636 10.033c-35.139 3.988-67.245 23.795-86.409 53.309-5.223 8.043-11.405 20.982-13.594 28.451l-1.551 5.293 7.002-.293 7.002-.293 3.301-8c5.978-14.487 13.643-25.57 25.274-36.541 40.143-37.87 101.775-38.09 143.053-.513 11.083 10.089 23.791 29.284 27.346 41.304l1.257 4.25h14.721l-.654-2.75c-2.635-11.085-11.898-28.74-21.229-40.462-24.748-31.091-66.082-48.23-105.519-43.755M40.915 113.091c-7.693 8.236-6.472 26.984 2.045 31.388 4.673 2.417 11.07 1.975 14.261-.983 2.672-2.477 5.675-9.933 4.482-11.126-1.282-1.282-3.539.608-4.173 3.493-.774 3.524-2.218 4.9-6.401 6.1-6.556 1.88-11.705-4.554-11.55-14.431.199-12.599 9.177-17.631 15-8.407 4.097 6.49 7.071 4.03 3.527-2.918-3.473-6.808-12.255-8.4-17.191-3.116M66.5 111c-1.237 2.001.73 3 5.908 3h5.291l.643 10.25c1.184 18.836 1.751 21.75 4.235 21.75 1.195 0 1.493-.611 1.098-2.25-.433-1.798-1.904-20.999-2.126-27.75-.035-1.074 1.229-1.589 4.451-1.813 5.114-.356 7.293-1.758 4.992-3.213-2.013-1.273-23.704-1.249-24.492.026m62.946.087c-1.114 1.803.785 2.776 6.054 3.103l5 .31.664 9.5c.898 12.839 1.707 19.982 2.388 21.084.311.504 1.25.916 2.086.916 1.122 0 1.381-.722.987-2.75-.294-1.512-.806-7.25-1.138-12.75-.333-5.5-.8-11.463-1.04-13.25l-.436-3.25h4.935c5.019 0 7.43-1.514 4.932-3.096-2.043-1.294-23.619-1.132-24.432.183m50.617 7.163a1940.115 1940.115 0 0 1-4.782 11.75l-1.45 3.5-2.537-5c-6.332-12.486-7.214-14.118-8.642-16-1.137-1.499-1.807-1.715-2.672-.863-.87.857-.103 3.197 3.116 9.5 2.349 4.6 5.284 9.995 6.522 11.989l2.25 3.626-2.684 2.495c-1.476 1.373-3.922 2.787-5.434 3.143-4.089.964-3.648 3.832.527 3.425 5.348-.521 11.899-7.139 14.664-14.815 1.376-3.82 1.929-5.167 5.004-12.195 2.352-5.373 2.644-8.805.752-8.805-.717 0-2.802 3.713-4.634 8.25m16.427-4.94c-1.892 1.892-3.825 5.214-4.511 7.75-2.322 8.595.863 20.616 6.256 23.611 3.531 1.961 10.54 1.625 13.747-.658 3.285-2.339 6.647-9.784 5.112-11.319-1.302-1.302-4.094.906-4.094 3.237 0 2.813-2.408 5.198-6.049 5.993-7.478 1.632-12.056-4.084-11.544-14.416.338-6.806 2.905-12.119 6.264-12.962 3.506-.88 6.891 1.011 8.723 4.871 1.939 4.088 4.606 4.8 4.606 1.231 0-3.303-4.044-8.93-7.011-9.756-5.456-1.518-8.124-.957-11.499 2.418m-87.982-1.13c-5.175 14.126-6.852 18.856-7.635 21.519-.516 1.76-1.596 4.46-2.4 6-.803 1.541-1.463 3.588-1.467 4.551-.011 3.121 2.738 1.853 4.877-2.25 1.147-2.2 1.777-4 1.401-4-.376 0-.179-.505.438-1.122.617-.617.921-1.644.677-2.281-.391-1.02 3.615-1.239 12.116-.666.559.038 1.792 2.206 2.74 4.819 2.31 6.361 3.256 7.652 5.09 6.948 1.322-.508 1.06-1.871-1.803-9.396a2226.23 2226.23 0 0 1-6.306-16.802c-2.31-6.251-3.425-8.07-5.101-8.32-1.179-.176-2.362.274-2.627 1m-.196 11.82-1.967 6h4.935c4.304 0 4.843-.223 4.221-1.75-.392-.963-1.382-3.662-2.201-6-.818-2.338-1.833-4.25-2.254-4.25-.422 0-1.652 2.7-2.734 6m-96.689 33.75c4.408 18.329 16.645 39.477 31.309 54.109 17.387 17.349 39.771 28.957 64.068 33.224 10.377 1.822 30.592 1.614 41.094-.423 36.824-7.14 68.052-30.5 84.288-63.053 3.961-7.941 9.618-23.103 9.618-25.778 0-.504-3.202-.784-7.116-.623l-7.116.294-1.74 5.5c-5.082 16.06-14.038 29.943-27.791 43.079-15.259 14.575-30.786 22.723-51.443 26.993-14.067 2.909-33.898 2.298-47.494-1.462-22.051-6.099-40.747-18.37-54.886-36.025-6.88-8.591-15.397-24.28-17.952-33.069L24.858 155H10.962l.661 2.75" fill="#1976D2" fill-rule="evenodd"/></svg>